<svg xmlns="http://www.w3.org/2000/svg" xmlns:xlink="http://www.w3.org/1999/xlink" version="1.1" x="0px" y="0px" viewBox="0 0 100 125" style="enable-background:new 0 0 100 100;" xml:space="preserve"><path d="M11.9999208,49.999939c0-20.9867649,17.0131912-37.999897,38.0001411-37.999897  c9.6361122,0,18.4323196,3.5837421,25.1343536,9.5000048h-8.509346c-2.6234131,0-4.7500038,2.1265888-4.7500038,4.7499409  s2.1265907,4.7500019,4.7500038,4.7500019h18.9999466c2.6234741,0,4.750061-2.1266479,4.750061-4.7500019V7.250041  c0-2.623353-2.1265869-4.7499409-4.750061-4.7499409c-2.6234131,0-4.75,2.1265881-4.75,4.7499409v6.6541166  C72.5748978,6.7988691,61.788578,2.5000999,50.000061,2.5000999c-26.233654,0-47.5000839,21.2663689-47.5000839,47.4998398  c0,2.6234131,2.1266491,4.7499428,4.7500019,4.7499428C9.8732719,54.7498817,11.9999208,52.6233521,11.9999208,49.999939z"/><path d="M92.7500229,45.2498741c-2.6234207,0-4.7500076,2.1265907-4.7500076,4.7500648  c0,20.986824-17.0130692,37.9999542-37.9999542,37.9999542c-9.6361732,0-18.4326859-3.5835571-25.134716-9.500061h8.5097694  c2.6233521,0,4.7499428-2.1265869,4.7499428-4.7499466c0-2.6234131-2.1265907-4.75-4.7499428-4.75H14.3751059  c-2.623354,0-4.7500029,2.1265869-4.7500029,4.75v18.9999542c0,2.6234741,2.1266489,4.750061,4.7500029,4.750061  c2.623292,0,4.750001-2.1265869,4.750001-4.750061v-6.6541214c8.3002987,7.1052322,19.0864372,11.4041824,30.8749542,11.4041824  c26.2337799,0,47.4999619-21.266243,47.4999619-47.4999619C97.5000229,47.3764648,95.373436,45.2498741,92.7500229,45.2498741z"/><text x="0" y="115" fill="#000000" font-size="5px" font-weight="bold" font-family="'Helvetica Neue', Helvetica, Arial-Unicode, Arial, Sans-serif">Created by Icon Agent</text><text x="0" y="120" fill="#000000" font-size="5px" font-weight="bold" font-family="'Helvetica Neue', Helvetica, Arial-Unicode, Arial, Sans-serif">from the Noun Project</text></svg>