<svg xmlns="http://www.w3.org/2000/svg" xmlns:xlink="http://www.w3.org/1999/xlink" version="1.1" x="0px" y="0px" viewBox="0 0 32 40" style="enable-background:new 0 0 32 32;" xml:space="preserve"><path d="M26.68,1.367l-22.908,28c-0.35,0.427-0.286,1.057,0.142,1.407C4.099,30.926,4.322,31,4.545,31  c0.29,0,0.577-0.125,0.775-0.367l22.908-28c0.35-0.427,0.286-1.057-0.142-1.407C27.659,0.877,27.029,0.939,26.68,1.367z"/><path d="M13.982,8.342L3.853,1.354C3.548,1.143,3.15,1.12,2.82,1.291C2.491,1.464,2.285,1.805,2.285,2.177v13.977  c0,0.372,0.206,0.713,0.535,0.886c0.146,0.076,0.306,0.114,0.465,0.114c0.199,0,0.397-0.06,0.567-0.177l10.13-6.988  c0.271-0.187,0.433-0.494,0.433-0.823S14.254,8.528,13.982,8.342z"/><path d="M18.813,18.189c-0.553,0-1,0.447-1,1v10.634c0,0.553,0.447,1,1,1h3.137c0.553,0,1-0.447,1-1V19.189c0-0.553-0.447-1-1-1  H18.813z"/><path d="M24.578,19.189v10.634c0,0.553,0.447,1,1,1h3.137c0.553,0,1-0.447,1-1V19.189c0-0.553-0.447-1-1-1h-3.137  C25.025,18.189,24.578,18.637,24.578,19.189z"/><text x="0" y="47" fill="#000000" font-size="5px" font-weight="bold" font-family="'Helvetica Neue', Helvetica, Arial-Unicode, Arial, Sans-serif">Created by Athok</text><text x="0" y="52" fill="#000000" font-size="5px" font-weight="bold" font-family="'Helvetica Neue', Helvetica, Arial-Unicode, Arial, Sans-serif">from the Noun Project</text></svg>