<svg xmlns="http://www.w3.org/2000/svg" version="1.1" viewBox="-5.0 -10.0 110.0 135.0">
 <path d="m47.609 35.109-25 25c-0.15625 0.16016-0.29688 0.32812-0.41797 0.51562-0.125 0.18359-0.22656 0.37891-0.3125 0.58203-0.085937 0.20703-0.14844 0.41797-0.19141 0.63281-0.042969 0.21875-0.066406 0.4375-0.066406 0.66016 0 0.10938 0.007812 0.22266 0.015625 0.33203 0.011719 0.10938 0.027343 0.21875 0.050781 0.32812 0.019531 0.10938 0.046875 0.21484 0.078125 0.32031 0.035156 0.10547 0.070313 0.21094 0.11328 0.3125 0.042969 0.10156 0.089844 0.20312 0.14062 0.30078 0.054688 0.097656 0.10938 0.19141 0.17188 0.28125 0.0625 0.09375 0.125 0.18359 0.19531 0.26953 0.070312 0.085938 0.14453 0.16797 0.22266 0.24609s0.16016 0.15234 0.24609 0.22266c0.085937 0.070313 0.17578 0.13281 0.26953 0.19531 0.089844 0.0625 0.18359 0.11719 0.28125 0.17188 0.097656 0.050781 0.19922 0.097656 0.30078 0.14062 0.10156 0.042968 0.20703 0.078125 0.3125 0.11328 0.10547 0.03125 0.21094 0.058594 0.32031 0.078125 0.10938 0.023438 0.21875 0.039062 0.32812 0.050781 0.10938 0.007813 0.22266 0.015625 0.33203 0.015625 0.22266 0 0.44141-0.023437 0.66016-0.066406 0.21484-0.042969 0.42969-0.10547 0.63281-0.19141 0.20312-0.085938 0.39844-0.1875 0.58203-0.3125 0.1875-0.12109 0.35547-0.26172 0.51562-0.41797l22.609-22.613 22.609 22.613c0.16016 0.15625 0.32812 0.29688 0.51562 0.41797 0.18359 0.125 0.37891 0.22656 0.58203 0.3125 0.20703 0.085937 0.41797 0.14844 0.63281 0.19141 0.21875 0.042969 0.4375 0.066406 0.66016 0.066406 0.10938 0 0.22266-0.007812 0.33203-0.015625 0.10938-0.011719 0.21875-0.027343 0.32812-0.050781 0.10938-0.019531 0.21484-0.046875 0.32031-0.078125 0.10547-0.035156 0.21094-0.070313 0.3125-0.11328 0.10156-0.042969 0.20312-0.089844 0.30078-0.14062 0.097656-0.054688 0.19141-0.10938 0.28125-0.17188 0.09375-0.0625 0.18359-0.125 0.26953-0.19531 0.085938-0.070312 0.16797-0.14453 0.24609-0.22266s0.15234-0.16016 0.22266-0.24609c0.070313-0.085937 0.13281-0.17578 0.19531-0.26953 0.0625-0.089844 0.11719-0.18359 0.17188-0.28125 0.050781-0.097656 0.097656-0.19922 0.14062-0.30078 0.042968-0.10156 0.078125-0.20703 0.11328-0.3125 0.03125-0.10547 0.058594-0.21094 0.078125-0.32031 0.023438-0.10938 0.039062-0.21875 0.050781-0.32812 0.007813-0.10938 0.015625-0.22266 0.015625-0.33203 0-0.22266-0.023437-0.44141-0.066406-0.66016-0.042969-0.21484-0.10547-0.42578-0.19141-0.63281-0.085938-0.20312-0.1875-0.39844-0.3125-0.58203-0.12109-0.1875-0.26172-0.35547-0.41797-0.51562l-25-25c-0.078125-0.078125-0.16016-0.15234-0.24609-0.22266-0.085937-0.070313-0.17578-0.13281-0.26953-0.19531-0.089844-0.0625-0.18359-0.11719-0.28125-0.17188-0.097656-0.050781-0.19922-0.097656-0.30078-0.14062-0.10156-0.042968-0.20703-0.078125-0.3125-0.11328-0.10547-0.03125-0.21094-0.058594-0.32031-0.078125-0.10938-0.023438-0.21875-0.039062-0.32812-0.050781-0.10938-0.007813-0.22266-0.015625-0.33203-0.015625s-0.22266 0.007812-0.33203 0.015625c-0.10938 0.011719-0.21875 0.027343-0.32812 0.050781-0.10938 0.019531-0.21484 0.046875-0.32031 0.078125-0.10547 0.035156-0.21094 0.070313-0.3125 0.11328-0.10156 0.042969-0.20312 0.089844-0.30078 0.14062-0.097656 0.054688-0.19141 0.10938-0.28125 0.17188-0.09375 0.0625-0.18359 0.125-0.26953 0.19531-0.085938 0.070312-0.16797 0.14453-0.24609 0.22266z" fill-rule="evenodd"/>
<text x="0.0" y="117.5" font-size="5.0" font-weight="bold" font-family="Arbeit Regular, Helvetica, Arial-Unicode, Arial, Sans-serif" fill="#000000">Created by Daily Scoop</text><text x="0.0" y="122.5" font-size="5.0" font-weight="bold" font-family="Arbeit Regular, Helvetica, Arial-Unicode, Arial, Sans-serif" fill="#000000">from Noun Project</text></svg>